<svg width="88" height="41" viewBox="0 0 88 41" fill="none" xmlns="http://www.w3.org/2000/svg">
<path d="M25.0865 4.20495C24.7505 3.6959 24.2597 3.68128 23.7005 3.66462C23.6371 3.66273 23.5729 3.66081 23.5079 3.65815C23.4584 3.6559 23.4038 3.65677 23.3467 3.65767C23.1199 3.66128 22.8546 3.66549 22.7209 3.47692C22.566 3.2583 22.5807 2.8358 22.5928 2.48701C22.5966 2.37679 22.6002 2.27387 22.5981 2.18714C22.5763 1.3769 22.5309 0.516218 22.2148 0.228493C21.9764 0.0126175 21.2634 0.0425242 20.6057 0.0701053C20.3926 0.0790463 20.1852 0.087743 20.0017 0.087743H6.00394C5.7221 0.087743 5.42667 0.0650351 5.1364 0.0427234C4.57078 -0.000752151 4.02474 -0.0427233 3.63698 0.087743C3.07424 0.278012 3.03613 1.27784 3.00025 2.21932L2.99832 2.26997C2.96819 3.0472 2.77353 3.64694 2.12838 3.58653C1.37802 3.5174 0.631367 3.49561 0.292105 4.16759C-0.108571 4.96265 -0.0259358 5.79492 0.122076 7.28562C0.143219 7.49856 0.165695 7.72494 0.188288 7.96656H25.3029C25.3173 7.78995 25.3326 7.61561 25.3476 7.44409C25.4652 6.10292 25.5677 4.93437 25.0865 4.20495Z" fill="#8047F8"/>
<path fill-rule="evenodd" clip-rule="evenodd" d="M2.14414 9.44504C2.53638 14.6979 2.92434 19.9569 3.31231 25.2159L3.31254 25.2191C3.5232 28.0746 3.73385 30.93 3.94519 33.7846H4.74654C4.80114 34.2314 4.86362 34.7831 4.9295 35.3647C5.06322 36.5453 5.21095 37.8495 5.33515 38.651H5.42378C6.24002 38.3555 11.8828 35.9689 11.8853 26.4674C11.8843 26.4403 11.8852 26.4132 11.888 26.3863H10.4939C10.4265 26.3856 10.361 26.3634 10.3078 26.3228C10.2545 26.2823 10.2163 26.2258 10.1991 26.1619C10.0632 25.8299 9.95368 25.4881 9.87143 25.1396C9.05131 25.5979 8.40003 26.2978 8.01044 27.1394C7.64061 26.2774 7.5922 25.3157 7.87368 24.4224C8.15515 23.529 8.74861 22.7608 9.55034 22.252C9.56067 19.4794 10.6098 16.8068 12.4991 14.7399L12.5286 14.7142C12.5835 14.6672 12.6538 14.6411 12.7267 14.6405C12.7689 14.6409 12.8105 14.6498 12.849 14.6667C12.8879 14.6838 12.9228 14.7087 12.9512 14.7399C14.8626 16.8096 15.9062 19.5079 15.8738 22.2969C16.6905 22.7915 17.296 23.5591 17.578 24.4574C17.86 25.3556 17.7993 26.3233 17.4071 27.1811C17.0196 26.3381 16.3678 25.6376 15.5461 25.1812C15.4959 25.519 15.4035 25.8494 15.2709 26.1651C15.2251 26.2997 15.1333 26.3863 15.0416 26.3863H13.5549C13.5572 26.4024 13.5589 26.4186 13.5598 26.4348L13.5604 26.4386V26.4464C13.5609 26.4604 13.5609 26.4744 13.5604 26.4884C13.5808 36.2628 19.5803 38.4814 20.086 38.651H20.259C20.3031 37.8812 20.4469 36.8188 20.587 35.7832C20.6836 35.0695 20.7785 34.3685 20.8378 33.7846H21.6484C21.9079 30.189 22.1748 26.6034 22.4416 23.0178L22.4418 23.0159L22.4418 23.0148C22.7832 18.4284 23.1245 13.8418 23.4504 9.23392H2.19605C2.13487 9.24575 2.13904 9.34477 2.14414 9.44504ZM12.7267 14.6405L12.7252 14.6405H12.7284L12.7267 14.6405Z" fill="#8047F8"/>
<path d="M32.4322 5.84067C32.4322 4.54399 32.8837 3.53906 33.7866 2.82589C34.7059 2.09651 36.0849 1.73181 37.9236 1.73181C39.1384 1.73181 40.1726 1.84527 41.0263 2.07219V5.42735C40.107 5.15181 39.1959 5.01403 38.2929 5.01403C37.4065 5.01403 36.8319 5.11939 36.5692 5.3301C36.3065 5.5246 36.1752 5.81635 36.1752 6.20536V14.3744C36.1752 15.1524 36.7908 15.5414 38.0221 15.5414C39.2697 15.5414 40.2958 15.4199 41.1002 15.1768V18.459C40.2137 18.7021 39.1384 18.8237 37.8743 18.8237C36.0357 18.8237 34.6649 18.4671 33.762 17.7539C32.8755 17.0407 32.4322 16.0358 32.4322 14.7391V5.84067Z" fill="#403937"/>
<path d="M48.2933 8.15038C48.2933 7.53445 47.9486 7.22649 47.2591 7.22649C46.5696 7.22649 46.2248 7.53445 46.2248 8.15038V14.9093C46.2248 15.5252 46.5696 15.8332 47.2591 15.8332C47.9486 15.8332 48.2933 15.5252 48.2933 14.9093V8.15038ZM42.5804 8.02881C42.5804 6.79697 42.9662 5.84067 43.7377 5.15991C44.5257 4.46294 45.6995 4.11446 47.2591 4.11446C48.8187 4.11446 49.9843 4.46294 50.7558 5.15991C51.5438 5.84067 51.9378 6.79697 51.9378 8.02881V15.0309C51.9378 16.2627 51.5438 17.2271 50.7558 17.9241C49.9843 18.6049 48.8187 18.9452 47.2591 18.9452C45.6995 18.9452 44.5257 18.6049 43.7377 17.9241C42.9662 17.2271 42.5804 16.2627 42.5804 15.0309V8.02881Z" fill="#403937"/>
<path d="M54.3312 4.1874C54.3312 1.44817 55.7923 0.0785481 58.7145 0.0785481C59.0921 0.0785481 59.5435 0.119069 60.0688 0.200112V3.02039C59.8062 2.98797 59.5599 2.97176 59.3301 2.97176C58.4928 2.97176 58.0742 3.36077 58.0742 4.13877V4.35759H60.0688V7.22649H58.0742V18.7021H54.3312V7.22649H52.9276V4.35759H54.3312V4.1874Z" fill="#403937"/>
<path d="M61.5937 4.1874C61.5937 1.44817 63.0547 0.0785481 65.9769 0.0785481C66.3545 0.0785481 66.8059 0.119069 67.3313 0.200112V3.02039C67.0686 2.98797 66.8223 2.97176 66.5925 2.97176C65.7553 2.97176 65.3366 3.36077 65.3366 4.13877V4.35759H67.3313V7.22649H65.3366V18.7021H61.5937V7.22649H60.19V4.35759H61.5937V4.1874Z" fill="#403937"/>
<path d="M68.1912 14.6176V8.02881C68.1912 6.79697 68.577 5.84067 69.3486 5.15991C70.1202 4.46294 71.2857 4.11446 72.8453 4.11446C75.8495 4.11446 77.3517 5.41925 77.3517 8.02881V12.9643H71.7618V14.3258C71.7618 14.8121 71.8931 15.1605 72.1558 15.3713C72.4349 15.5658 73.0341 15.663 73.9534 15.663C74.8892 15.663 75.907 15.5009 77.0069 15.1768V18.386C75.8578 18.694 74.6265 18.848 73.3132 18.848C69.8985 18.848 68.1912 17.4378 68.1912 14.6176ZM71.7618 10.1683H73.9288V8.07744C73.9288 7.46152 73.5676 7.15355 72.8453 7.15355C72.123 7.15355 71.7618 7.46152 71.7618 8.07744V10.1683Z" fill="#403937"/>
<path d="M78.8203 14.6176V8.02881C78.8203 6.79697 79.2061 5.84067 79.9777 5.15991C80.7493 4.46294 81.9148 4.11446 83.4744 4.11446C86.4786 4.11446 87.9808 5.41925 87.9808 8.02881V12.9643H82.3909V14.3258C82.3909 14.8121 82.5222 15.1605 82.7849 15.3713C83.064 15.5658 83.6632 15.663 84.5825 15.663C85.5183 15.663 86.5361 15.5009 87.636 15.1768V18.386C86.4868 18.694 85.2556 18.848 83.9423 18.848C80.5276 18.848 78.8203 17.4378 78.8203 14.6176ZM82.3909 10.1683H84.5579V8.07744C84.5579 7.46152 84.1967 7.15355 83.4744 7.15355C82.7521 7.15355 82.3909 7.46152 82.3909 8.07744V10.1683Z" fill="#403937"/>
<path d="M38.3592 27.6542C38.3592 26.4572 37.7194 25.8588 36.4398 25.8588H34.3991V36.7708H36.4398C37.7194 36.7708 38.3592 36.1591 38.3592 34.9355V27.6542ZM32.9645 24.6219H36.5206C37.5982 24.6219 38.4131 24.8946 38.9654 25.4398C39.5177 25.9851 39.7938 26.7166 39.7938 27.6342V34.9754C39.7938 35.9197 39.5244 36.6644 38.9856 37.2097C38.4468 37.755 37.6386 38.0276 36.561 38.0276H32.9645V24.6219Z" fill="#403937"/>
<path d="M42.1546 35.135V29.5892C42.1546 28.645 42.424 27.8936 42.9628 27.335C43.5151 26.7631 44.3435 26.4772 45.4481 26.4772C46.5526 26.4772 47.3675 26.7631 47.8929 27.335C48.4317 27.8936 48.7011 28.645 48.7011 29.5892V33.0603H43.569V35.0752C43.569 35.6736 43.7576 36.1192 44.1347 36.4118C44.5119 36.7043 45.0978 36.8506 45.8926 36.8506C46.6873 36.8506 47.509 36.7309 48.3576 36.4916V37.8082C47.6841 38.021 46.8826 38.1274 45.9532 38.1274C43.4208 38.1274 42.1546 37.1299 42.1546 35.135ZM43.569 31.8833H47.3271V29.5892C47.3271 28.3391 46.7008 27.714 45.4481 27.714C44.1953 27.714 43.569 28.3391 43.569 29.5892V31.8833Z" fill="#403937"/>
<path d="M51.1569 23.6644H52.5915V38.0276H51.1569V23.6644Z" fill="#403937"/>
<path d="M56.0866 25.4C55.5074 25.4 55.2178 25.0941 55.2178 24.4823C55.2178 23.8705 55.5074 23.5647 56.0866 23.5647C56.6793 23.5647 56.9757 23.8705 56.9757 24.4823C56.9757 25.0941 56.6793 25.4 56.0866 25.4ZM55.3795 26.7565H56.814V38.0276H55.3795V26.7565Z" fill="#403937"/>
<path d="M64.2087 26.6767H65.6635L63.1177 38.0276H61.0972L58.5513 26.6767H60.0263L61.1376 31.8833L62.1276 37.0302C62.5317 34.8225 63.2254 31.3713 64.2087 26.6767Z" fill="#403937"/>
<path d="M67.1939 35.135V29.5892C67.1939 28.645 67.4633 27.8936 68.0021 27.335C68.5543 26.7631 69.3827 26.4772 70.4873 26.4772C71.5918 26.4772 72.4068 26.7631 72.9321 27.335C73.4709 27.8936 73.7403 28.645 73.7403 29.5892V33.0603H68.6082V35.0752C68.6082 35.6736 68.7968 36.1192 69.174 36.4118C69.5511 36.7043 70.1371 36.8506 70.9318 36.8506C71.7265 36.8506 72.5482 36.7309 73.3968 36.4916V37.8082C72.7233 38.021 71.9218 38.1274 70.9924 38.1274C68.4601 38.1274 67.1939 37.1299 67.1939 35.135ZM68.6082 31.8833H72.3664V29.5892C72.3664 28.3391 71.74 27.714 70.4873 27.714C69.2346 27.714 68.6082 28.3391 68.6082 29.5892V31.8833Z" fill="#403937"/>
<path d="M79.9139 26.6168H80.419V27.9734H79.732C79.2471 27.9734 78.8093 28.0997 78.4187 28.3524C78.2975 28.4322 78.0348 28.6117 77.6307 28.891V38.0276H76.1962V26.6767H77.5701V27.5345C77.6105 27.5079 77.7115 27.4347 77.8732 27.315C78.0483 27.1954 78.1493 27.1289 78.1763 27.1156C78.2167 27.089 78.3042 27.0358 78.4389 26.956C78.5871 26.8762 78.6948 26.8296 78.7622 26.8163C78.843 26.7897 78.9508 26.7565 79.0855 26.7166C79.2875 26.6501 79.5637 26.6168 79.9139 26.6168Z" fill="#403937"/>
<path d="M86.5654 26.6767H88L84.848 41H83.4741L84.1004 38.0276H83.3933L80.8878 26.6767H82.3426L83.5549 32.3222L84.4439 37.0302C84.7133 35.4609 85.0097 33.8915 85.3329 32.3222L86.5654 26.6767Z" fill="#403937"/>
</svg>
